<svg width="383" height="100" viewBox="0 0 383 100" fill="none" xmlns="http://www.w3.org/2000/svg">
<path d="M94.0886 65.0136H75.305L72.1969 74H62.2646L79.2239 26.7706H90.2373L107.197 74H97.1967L94.0886 65.0136ZM91.5211 57.4461L84.6968 37.7165L77.8725 57.4461H91.5211ZM111.103 55.1488C111.103 51.365 111.847 48.0092 113.333 45.0813C114.865 42.1534 116.914 39.9012 119.482 38.3246C122.094 36.748 125 35.9597 128.198 35.9597C130.991 35.9597 133.423 36.5228 135.495 37.6489C137.612 38.775 139.301 40.1939 140.563 41.9056V36.5678H150.09V74H140.563V68.5271C139.346 70.2838 137.657 71.7478 135.495 72.9189C133.378 74.045 130.923 74.6081 128.13 74.6081C124.977 74.6081 122.094 73.7973 119.482 72.1757C116.914 70.5541 114.865 68.2793 113.333 65.3514C111.847 62.3785 111.103 58.9776 111.103 55.1488ZM140.563 55.2839C140.563 52.9866 140.112 51.0272 139.211 49.4056C138.31 47.7389 137.094 46.4777 135.563 45.6218C134.031 44.7209 132.387 44.2705 130.63 44.2705C128.874 44.2705 127.252 44.6984 125.765 45.5543C124.279 46.4101 123.063 47.6714 122.117 49.338C121.216 50.9596 120.766 52.8966 120.766 55.1488C120.766 57.401 121.216 59.383 122.117 61.0947C123.063 62.7613 124.279 64.0451 125.765 64.946C127.297 65.8469 128.919 66.2974 130.63 66.2974C132.387 66.2974 134.031 65.8694 135.563 65.0136C137.094 64.1127 138.31 62.8514 139.211 61.2298C140.112 59.5632 140.563 57.5812 140.563 55.2839ZM205.814 36.0273C210.409 36.0273 214.103 37.4462 216.895 40.284C219.733 43.0768 221.152 46.9957 221.152 52.0407V74H211.693V53.3245C211.693 50.3966 210.95 48.1669 209.463 46.6353C207.977 45.0588 205.95 44.2705 203.382 44.2705C200.815 44.2705 198.765 45.0588 197.233 46.6353C195.747 48.1669 195.004 50.3966 195.004 53.3245V74H185.544V53.3245C185.544 50.3966 184.801 48.1669 183.315 46.6353C181.828 45.0588 179.801 44.2705 177.234 44.2705C174.621 44.2705 172.549 45.0588 171.017 46.6353C169.531 48.1669 168.788 50.3966 168.788 53.3245V74H159.328V36.5678H168.788V41.0948C170.004 39.5183 171.558 38.2795 173.45 37.3786C175.387 36.4778 177.504 36.0273 179.801 36.0273C182.729 36.0273 185.342 36.6579 187.639 37.9192C189.936 39.1354 191.716 40.8921 192.977 43.1894C194.193 41.0273 195.95 39.293 198.247 37.9867C200.589 36.6805 203.112 36.0273 205.814 36.0273ZM239.588 41.9732C240.804 40.2615 242.471 38.8426 244.588 37.7165C246.75 36.5453 249.205 35.9597 251.953 35.9597C255.151 35.9597 258.034 36.748 260.601 38.3246C263.214 39.9012 265.263 42.1534 266.75 45.0813C268.281 47.9642 269.047 51.32 269.047 55.1488C269.047 58.9776 268.281 62.3785 266.75 65.3514C265.263 68.2793 263.214 70.5541 260.601 72.1757C258.034 73.7973 255.151 74.6081 251.953 74.6081C249.205 74.6081 246.773 74.045 244.656 72.9189C242.583 71.7928 240.894 70.3739 239.588 68.6622V91.8377H230.129V36.5678H239.588V41.9732ZM259.385 55.1488C259.385 52.8966 258.912 50.9596 257.966 49.338C257.065 47.6714 255.849 46.4101 254.318 45.5543C252.831 44.6984 251.21 44.2705 249.453 44.2705C247.741 44.2705 246.119 44.7209 244.588 45.6218C243.101 46.4777 241.885 47.7389 240.939 49.4056C240.038 51.0722 239.588 53.0317 239.588 55.2839C239.588 57.5362 240.038 59.4956 240.939 61.1623C241.885 62.8289 243.101 64.1127 244.588 65.0136C246.119 65.8694 247.741 66.2974 249.453 66.2974C251.21 66.2974 252.831 65.8469 254.318 64.946C255.849 64.0451 257.065 62.7613 257.966 61.0947C258.912 59.428 259.385 57.4461 259.385 55.1488ZM310.718 54.4731C310.718 55.8245 310.628 57.0407 310.448 58.1217H283.083C283.308 60.8244 284.254 62.9415 285.921 64.473C287.588 66.0046 289.637 66.7703 292.07 66.7703C295.583 66.7703 298.083 65.2613 299.57 62.2433H309.772C308.691 65.8469 306.619 68.8199 303.556 71.1622C300.493 73.4595 296.732 74.6081 292.272 74.6081C288.669 74.6081 285.426 73.8198 282.543 72.2433C279.705 70.6216 277.475 68.3469 275.854 65.419C274.277 62.4911 273.489 59.1127 273.489 55.2839C273.489 51.4101 274.277 48.0092 275.854 45.0813C277.43 42.1534 279.637 39.9012 282.475 38.3246C285.313 36.748 288.579 35.9597 292.272 35.9597C295.831 35.9597 299.007 36.7255 301.799 38.257C304.637 39.7885 306.822 41.9732 308.353 44.811C309.93 47.6038 310.718 50.8245 310.718 54.4731ZM300.921 51.7704C300.876 49.338 299.998 47.4011 298.286 45.9597C296.574 44.4732 294.48 43.73 292.002 43.73C289.66 43.73 287.678 44.4507 286.056 45.8921C284.48 47.2885 283.511 49.2479 283.151 51.7704H300.921ZM327.082 42.3786C328.298 40.3966 329.875 38.8426 331.812 37.7165C333.794 36.5904 336.046 36.0273 338.568 36.0273V45.9597H336.068C333.096 45.9597 330.843 46.6579 329.312 48.0542C327.825 49.4506 327.082 51.883 327.082 55.3515V74H317.623V36.5678H327.082V42.3786ZM379.737 54.4731C379.737 55.8245 379.647 57.0407 379.467 58.1217H352.102C352.327 60.8244 353.273 62.9415 354.94 64.473C356.606 66.0046 358.656 66.7703 361.088 66.7703C364.602 66.7703 367.102 65.2613 368.588 62.2433H378.791C377.71 65.8469 375.638 68.8199 372.575 71.1622C369.512 73.4595 365.75 74.6081 361.291 74.6081C357.687 74.6081 354.444 73.8198 351.561 72.2433C348.724 70.6216 346.494 68.3469 344.872 65.419C343.296 62.4911 342.507 59.1127 342.507 55.2839C342.507 51.4101 343.296 48.0092 344.872 45.0813C346.449 42.1534 348.656 39.9012 351.494 38.3246C354.332 36.748 357.597 35.9597 361.291 35.9597C364.85 35.9597 368.025 36.7255 370.818 38.257C373.656 39.7885 375.841 41.9732 377.372 44.811C378.949 47.6038 379.737 50.8245 379.737 54.4731ZM369.94 51.7704C369.895 49.338 369.016 47.4011 367.305 45.9597C365.593 44.4732 363.498 43.73 361.021 43.73C358.678 43.73 356.697 44.4507 355.075 45.8921C353.498 47.2885 352.53 49.2479 352.17 51.7704H369.94Z" fill="#3EC099"/>
<path fill-rule="evenodd" clip-rule="evenodd" d="M29.1862 10.6556H29.1805V41.747L44.9255 41.747C46.1832 41.747 46.9953 43.0778 46.4201 44.1963L20.6031 94.396C20.5854 94.4304 20.567 94.4637 20.5479 94.496L20.1233 95.3215C19.4379 96.6543 17.4243 96.1668 17.4243 94.6682V89.6464H17.4278L17.4278 58.5552H1.68289C0.425164 58.5552 -0.386916 57.2244 0.188305 56.1059L26.0053 5.90619C26.0273 5.86345 26.0504 5.82231 26.0746 5.78274L26.4872 4.98053C27.1726 3.64778 29.1862 4.13521 29.1862 5.63388V10.6556Z" fill="#3EC099"/>
</svg>
